<svg width="32" height="32" viewBox="0 0 32 32" fill="none" xmlns="http://www.w3.org/2000/svg">
<circle cx="16" cy="16" r="16" fill="#0D28A6"/>
<path d="M25.1667 8.49996C24.3687 9.06285 23.4851 9.49338 22.55 9.77496C22.0481 9.19788 21.3811 8.78887 20.6392 8.60323C19.8973 8.41759 19.1162 8.46429 18.4017 8.737C17.6872 9.00972 17.0737 9.49529 16.6441 10.1281C16.2146 10.7608 15.9897 11.5102 16 12.275V13.1083C14.5355 13.1463 13.0844 12.8215 11.7758 12.1628C10.4673 11.5042 9.34193 10.5322 8.5 9.33329C8.5 9.33329 5.16667 16.8333 12.6667 20.1666C10.9504 21.3316 8.90596 21.9157 6.83333 21.8333C14.3333 26 23.5 21.8333 23.5 12.25C23.4992 12.0178 23.4769 11.7863 23.4333 11.5583C24.2838 10.7195 24.884 9.66055 25.1667 8.49996V8.49996Z" stroke="white" stroke-linecap="round" stroke-linejoin="round"/>
</svg>
